Coordinates
version=1
nRows=14
nColumns=36
inDegrees=yes

Units are S.I. units (second, meters, Newtons, ...)
Angles are in degrees.

endheader
time	pelvis_tilt	pelvis_list	pelvis_rotation	pelvis_tx	pelvis_ty	pelvis_tz	hip_flexion_r	hip_adduction_r	hip_rotation_r	knee_angle_r	ankle_angle_r	subtalar_angle_r	hip_flexion_l	hip_adduction_l	hip_rotation_l	knee_angle_l	ankle_angle_l	subtalar_angle_l	lumbar_extension	lumbar_bending	lumbar_rotation	arm_flex_r	arm_add_r	arm_rot_r	elbow_flex_r	pro_sup_r	wrist_flex_r	wrist_dev_r	arm_flex_l	arm_add_l	arm_rot_l	elbow_flex_l	pro_sup_l	wrist_flex_l	wrist_dev_l
      3.41000000	     -2.16430479	      5.32835300	      5.19863277	     -0.53598322	      0.91265586	     -0.23222619	      6.33564802	     -3.43454753	     -2.77985574	    -60.62961966	    -11.79135356	    -11.06951969	     20.02342769	     10.31910769	      3.60624470	    -25.64677904	      3.59360040	      2.82265834	     -4.32631790	     -5.09161915	     -2.46585924	     -4.90678352	    -17.22106564	     10.11954377	     26.23689717	     86.51662706	      0.00000000	      0.00000000	     -2.30202268	    -15.19490478	     19.66485516	     18.07375425	     86.51662706	      0.00000000	      0.00000000
      3.42000000	     -2.19886364	      5.28507896	      4.95818583	     -0.52492269	      0.91404636	     -0.23210122	      8.35500054	     -3.32671252	     -2.38229545	    -62.51814583	    -11.07094498	    -11.91604648	     19.10525162	     10.03487833	      2.99120894	    -25.30946388	      4.32158776	      3.73113163	     -4.41462311	     -5.10376410	     -2.62063309	     -4.72493067	    -17.10290465	     10.86747275	     25.37860392	     86.51662706	      0.00000000	      0.00000000	     -2.20122769	    -15.35607708	     19.09721958	     18.89450737	     86.51662706	      0.00000000	      0.00000000
      3.43000000	     -2.22450425	      5.19661565	      4.75959808	     -0.51386089	      0.91546597	     -0.23204329	     10.32892145	     -3.18021382	     -2.08732223	    -64.07328918	    -10.24417574	    -12.35212180	     18.13775418	      9.76712423	      2.63058682	    -24.91146656	      4.98024447	      4.42359864	     -4.50825688	     -5.04758679	     -2.82182910	     -4.59842667	    -17.00187255	     11.52785571	     24.63027352	     86.51662706	      0.00000000	      0.00000000	     -2.09662190	    -15.50710094	     18.57824030	     19.70528310	     86.51662706	      0.00000000	      0.00000000
      3.44000000	     -2.24140707	      5.06850161	      4.61162862	     -0.50277858	      0.91688923	     -0.23209168	     12.23912333	     -3.00630074	     -1.88019552	    -65.28904815	     -9.35833466	    -12.38072378	     17.12648844	      9.52197003	      2.53234045	    -24.46744937	      5.58349670	      4.88095187	     -4.60243615	     -4.92752521	     -3.06171424	     -4.54649024	    -16.91869283	     12.06805519	     24.00212633	     86.51662706	      0.00000000	      0.00000000	     -1.98678262	    -15.64495722	     18.11029761	     20.50738489	     86.51662706	      0.00000000	      0.00000000
      3.45000000	     -2.24902348	      4.90530033	      4.51688518	     -0.49168158	      0.91828817	     -0.23226546	     14.07102032	     -2.81725348	     -1.74898968	    -66.16604775	     -8.43382683	    -12.04927969	     16.08020200	      9.29669967	      2.67286685	    -23.99181307	      6.14285664	      5.11024329	     -4.69427688	     -4.74943819	     -3.33219689	     -4.57707729	    -16.85390410	     12.46554823	     23.49623134	     86.51662706	      0.00000000	      0.00000000	     -1.87018331	    -15.76784988	     17.69293408	     21.30282214	     86.51662706	      0.00000000	      0.00000000
      3.46000000	     -2.24640934	      4.71094376	      4.47189029	     -0.48057034	      0.91963291	     -0.23254718	     15.81398264	     -2.62477653	     -1.68646491	    -66.70925603	     -7.47747302	    -11.44038649	     15.00882640	      9.08263638	      3.00383306	    -23.49696759	      6.66665694	      5.14202660	     -4.78260543	     -4.52018091	     -3.62535885	     -4.68763298	    -16.80731778	     12.70896169	     23.10647478	     86.51662706	      0.00000000	      0.00000000	     -1.74573184	    -15.87592810	     17.32376783	     22.09332514	     86.51662706	      0.00000000	      0.00000000
      3.47000000	     -2.23280259	      4.48963398	      4.46819538	     -0.46943232	      0.92090269	     -0.23289967	     17.46110069	     -2.43776346	     -1.68908990	    -66.92634175	     -6.49554584	    -10.65825917	     13.92132233	      8.86863147	      3.46176405	    -22.99196840	      7.16082349	      5.02475416	     -4.86745511	     -4.24739347	     -3.93388860	     -4.86754042	    -16.77763280	     12.79792050	     22.81951370	     86.51662706	      0.00000000	      0.00000000	     -1.61323580	    -15.97157445	     16.99941277	     22.87978296	     86.51662706	      0.00000000	      0.00000000
      3.48000000	     -2.20812523	      4.24621385	      4.49442232	     -0.45825781	      0.92208879	     -0.23329090	     19.00843328	     -2.26122883	     -1.75428125	    -66.82637969	     -5.50222215	     -9.81406106	     12.82418415	      8.64407983	      3.97865518	    -22.48166147	      7.63042900	      4.81720773	     -4.94949842	     -3.93948642	     -4.25139888	     -5.10146755	    -16.76222484	     12.74185500	     22.61652669	     86.51662706	      0.00000000	      0.00000000	     -1.47366783	    -16.05909264	     16.71623056	     23.66209265	     86.51662706	      0.00000000	      0.00000000
      3.49000000	     -2.17319156	      3.98592504	      4.53887552	     -0.44705327	      0.92317759	     -0.23369669	     20.45400727	     -2.09682179	     -1.87753394	    -66.41882712	     -4.52195407	     -9.01251209	     11.72078496	      8.40082451	      4.49194196	    -21.96666652	      8.08116758	      4.58015737	     -5.02960792	     -3.60567077	     -4.57258341	     -5.37267897	    -16.75717683	     12.55800949	     22.47546739	     86.51662706	      0.00000000	      0.00000000	     -1.32911423	    -16.14391434	     16.47077406	     24.43929194	     86.51662706	      0.00000000	      0.00000000
      3.50000000	     -2.12964951	      3.71447197	      4.59203098	     -0.43583448	      0.92413974	     -0.23409387	     21.79690751	     -1.94402163	     -2.05087566	    -65.71283720	     -3.58667875	     -8.34119854	     10.61140757	      8.13394039	      4.95243872	    -21.44446900	      8.52007367	      4.36845984	     -5.10862560	     -3.25589372	     -4.89324242	     -5.66560254	    -16.75760719	     12.26896834	     22.37347312	     86.51662706	      0.00000000	      0.00000000	     -1.18235809	    -16.23167157	     16.25988546	     25.20981181	     86.51662706	      0.00000000	      0.00000000
      3.51000000	     -2.07952098	      3.43848451	      4.64811101	     -0.42460641	      0.92493486	     -0.23446217	     23.03669686	     -1.80154468	     -2.26311369	    -64.71693899	     -2.72994371	     -7.86332444	      9.49389442	      7.84200035	      5.32922462	    -20.91141051	      8.95521467	      4.22464507	     -5.18737557	     -2.90061602	     -5.21027372	     -5.96734151	    -16.75823209	     11.90005315	     22.28907972	     86.51662706	      0.00000000	      0.00000000	     -1.03619617	    -16.32735775	     16.08052629	     25.97170032	     86.51662706	      0.00000000	      0.00000000
      3.52000000	     -2.02448448	      3.16562343	      4.70520100	     -0.41335455	      0.92552537	     -0.23478660	     24.17283601	     -1.66909590	     -2.50147371	    -63.43924286	     -1.98025030	     -7.61403733	      8.36507336	      7.52743224	      5.61099646	    -20.36486861	      9.39455436	      4.17474582	     -5.26692373	     -2.55044856	     -5.52170565	     -6.26816485	    -16.75397999	     11.47691732	     22.20395923	     86.51662706	      0.00000000	      0.00000000	     -0.89274047	    -16.43459570	     15.92950112	     26.72270384	     86.51662706	      0.00000000	      0.00000000
      3.53000000	     -1.96525852	      2.90414802	      4.76407500	     -0.40206129	      0.92589076	     -0.23505587	     25.20395113	     -1.54898935	     -2.75378749	    -61.88817962	     -1.35564395	     -7.59984093	      7.22262617	      7.19687965	      5.80413459	    -19.80488768	      9.84447037	      4.22676992	     -5.34893853	     -2.21572319	     -5.82675033	     -6.56121912	    -16.74049445	     11.02358758	     22.10400844	     86.51662706	      0.00000000	      0.00000000	     -0.75297417	    -16.55506050	     15.80326369	     27.46015565	     86.51662706	      0.00000000	      0.00000000
      3.54000000	     -1.90133457	      2.66236828	      4.82671208	     -0.39071947	      0.92603090	     -0.23526471	     26.12744337	     -1.44659504	     -3.01024905	    -60.07331109	     -0.86091245	     -7.80026766	      6.06641449	      6.86100452	      5.92835320	    -19.23484375	     10.30841308	      4.37184233	     -5.43589244	     -1.90606078	     -6.12576479	     -6.84179625	    -16.71446533	     10.56110010	     21.97973623	     86.51662706	      0.00000000	      0.00000000	     -0.61670047	    -16.68822508	     15.69795052	     28.18069285	     86.51662706	      0.00000000	      0.00000000
